<svg width="406" height="406" viewBox="0 0 406 406" fill="none" xmlns="http://www.w3.org/2000/svg">
<mask id="path-1-outside-1_792_232" maskUnits="userSpaceOnUse" x="0" y="0" width="406" height="406" fill="black">
<rect fill="white" width="406" height="406"/>
<path fill-rule="evenodd" clip-rule="evenodd" d="M326.82 5.54557C297.466 -6.76884 263.117 6.79794 250.1 35.8478L219.644 103.816L124.985 49.2913C87.1779 27.5142 37.9951 39.9849 15.1321 77.1454L12.8042 80.9291C-24.3652 141.343 32.0216 214.187 101.511 195.528L189.086 172.012L134.281 294.321C116.44 334.137 134.593 380.097 174.827 396.975L178.818 398.65C244.904 426.373 312.728 359.692 284.475 294.773L243.6 200.853C238.552 189.255 237.548 177.151 239.796 165.837C267.639 171.955 289.211 196.406 288.34 226.884L287.875 243.157C286.192 302.033 365.723 323.749 396.978 272.948C413.784 245.632 404.879 210.512 377.088 194.504L263.017 128.798C271.909 122.004 282.834 117.448 295.108 116.254L308.037 114.996C368.055 109.157 381.873 28.6404 326.82 5.54557Z"/>
</mask>
<path fill-rule="evenodd" clip-rule="evenodd" d="M326.82 5.54557C297.466 -6.76884 263.117 6.79794 250.1 35.8478L219.644 103.816L124.985 49.2913C87.1779 27.5142 37.9951 39.9849 15.1321 77.1454L12.8042 80.9291C-24.3652 141.343 32.0216 214.187 101.511 195.528L189.086 172.012L134.281 294.321C116.44 334.137 134.593 380.097 174.827 396.975L178.818 398.65C244.904 426.373 312.728 359.692 284.475 294.773L243.6 200.853C238.552 189.255 237.548 177.151 239.796 165.837C267.639 171.955 289.211 196.406 288.34 226.884L287.875 243.157C286.192 302.033 365.723 323.749 396.978 272.948C413.784 245.632 404.879 210.512 377.088 194.504L263.017 128.798C271.909 122.004 282.834 117.448 295.108 116.254L308.037 114.996C368.055 109.157 381.873 28.6404 326.82 5.54557Z" fill="url(#paint0_linear_792_232)"/>
<path d="M250.1 35.8478L249.917 35.766L250.1 35.8478ZM326.82 5.54557L326.898 5.36114L326.82 5.54557ZM219.644 103.816L219.545 103.989L219.736 104.099L219.827 103.897L219.644 103.816ZM124.985 49.2913L124.885 49.4646L124.985 49.2913ZM15.1321 77.1454L14.9617 77.0406H14.9617L15.1321 77.1454ZM12.8042 80.9291L12.9745 81.0339L12.8042 80.9291ZM101.511 195.528L101.46 195.335L101.511 195.528ZM189.086 172.012L189.269 172.094L189.441 171.71L189.035 171.819L189.086 172.012ZM134.281 294.321L134.464 294.403L134.281 294.321ZM174.827 396.975L174.904 396.791L174.827 396.975ZM178.818 398.65L178.741 398.834L178.818 398.65ZM284.475 294.773L284.292 294.853L284.475 294.773ZM243.6 200.853L243.783 200.773L243.6 200.853ZM239.796 165.837L239.839 165.642L239.64 165.598L239.6 165.798L239.796 165.837ZM288.34 226.884L288.54 226.889L288.34 226.884ZM287.875 243.157L287.675 243.152L287.875 243.157ZM396.978 272.948L397.148 273.053L396.978 272.948ZM377.088 194.504L376.988 194.677L377.088 194.504ZM263.017 128.798L262.895 128.639L262.657 128.822L262.917 128.972L263.017 128.798ZM295.108 116.254L295.127 116.453L295.108 116.254ZM308.037 114.996L308.017 114.797L308.037 114.996ZM250.283 35.9296C263.255 6.97881 297.488 -6.5424 326.743 5.73L326.898 5.36114C297.443 -6.99527 262.979 6.61707 249.917 35.766L250.283 35.9296ZM219.827 103.897L250.283 35.9296L249.917 35.766L219.462 103.734L219.827 103.897ZM124.885 49.4646L219.545 103.989L219.744 103.642L125.085 49.118L124.885 49.4646ZM15.3024 77.2502C38.1087 40.1819 87.1718 27.7415 124.885 49.4646L125.085 49.118C87.184 27.2869 37.8814 39.7879 14.9617 77.0406L15.3024 77.2502ZM12.9745 81.0339L15.3024 77.2502L14.9617 77.0406L12.6339 80.8243L12.9745 81.0339ZM101.46 195.335C32.1319 213.951 -24.0933 141.282 12.9745 81.0339L12.6339 80.8243C-24.6371 141.403 31.9112 214.424 101.563 195.721L101.46 195.335ZM189.035 171.819L101.46 195.335L101.563 195.721L189.138 172.205L189.035 171.819ZM134.464 294.403L189.269 172.094L188.904 171.93L134.099 294.239L134.464 294.403ZM174.904 396.791C134.774 379.956 116.669 334.116 134.464 294.403L134.099 294.239C116.212 334.158 134.412 380.238 174.749 397.16L174.904 396.791ZM178.896 398.465L174.904 396.791L174.749 397.16L178.741 398.834L178.896 398.465ZM284.292 294.853C312.469 359.596 244.825 426.123 178.896 398.465L178.741 398.834C244.983 426.623 312.988 359.787 284.658 294.693L284.292 294.853ZM243.416 200.933L284.292 294.853L284.658 294.693L243.783 200.773L243.416 200.933ZM239.6 165.798C237.344 177.151 238.352 189.296 243.416 200.933L243.783 200.773C238.753 189.214 237.751 177.152 239.992 165.876L239.6 165.798ZM288.54 226.889C289.414 196.308 267.768 171.778 239.839 165.642L239.753 166.033C267.511 172.132 289.008 196.505 288.14 226.878L288.54 226.889ZM288.075 243.163L288.54 226.889L288.14 226.878L287.675 243.152L288.075 243.163ZM396.808 272.843C381.233 298.158 353.633 305.406 330.128 298.988C306.623 292.57 287.237 272.495 288.075 243.163L287.675 243.152C286.831 272.696 306.368 292.916 330.022 299.374C353.675 305.833 381.468 298.539 397.148 273.053L396.808 272.843ZM376.988 194.677C404.681 210.629 413.554 245.623 396.808 272.843L397.148 273.053C414.013 245.641 405.076 210.395 377.188 194.331L376.988 194.677ZM262.917 128.972L376.988 194.677L377.188 194.331L263.117 128.625L262.917 128.972ZM295.088 116.055C282.776 117.253 271.816 121.824 262.895 128.639L263.138 128.957C272.001 122.185 282.891 117.644 295.127 116.453L295.088 116.055ZM308.017 114.797L295.088 116.055L295.127 116.453L308.056 115.195L308.017 114.797ZM326.743 5.73C354.173 17.2371 364.444 43.0424 360.383 66.7081C356.321 90.3747 337.927 111.887 308.017 114.797L308.056 115.195C338.164 112.266 356.688 90.601 360.777 66.7757C364.866 42.9495 354.52 16.9489 326.898 5.36114L326.743 5.73Z" fill="black" mask="url(#path-1-outside-1_792_232)"/>
<defs>
<linearGradient id="paint0_linear_792_232" x1="405.995" y1="20.6118" x2="34.0543" y2="203.31" gradientUnits="userSpaceOnUse">
<stop stop-color="#FFB800"/>
<stop offset="0.5224" stop-color="#F6DAAF"/>
<stop offset="1" stop-color="#FF932F"/>
</linearGradient>
</defs>
</svg>
